<?xml version="1.0" encoding="utf-8"?>
<!-- Generator: Adobe Illustrator 24.0.2, SVG Export Plug-In . SVG Version: 6.00 Build 0)  -->
<svg version="1.1" id="Calque_1" xmlns="http://www.w3.org/2000/svg" xmlns:xlink="http://www.w3.org/1999/xlink" x="0px" y="0px"
	 viewBox="0 0 67.2 77.9" style="enable-background:new 0 0 67.2 77.9;" xml:space="preserve">
<style type="text/css">
	.st0{fill:url(#SVGID_1_);}
	.st1{fill:url(#SVGID_2_);}
</style>
<title>Fichier 1</title>
<linearGradient id="SVGID_1_" gradientUnits="userSpaceOnUse" x1="621.4578" y1="-179.4701" x2="634.0353" y2="-166.9026" gradientTransform="matrix(0.1822 -0.9833 -0.9833 -0.1822 -245.8666 624.5787)">
	<stop  offset="0" style="stop-color:#0C4566"/>
	<stop  offset="0.28" style="stop-color:#0E8096"/>
	<stop  offset="0.61" style="stop-color:#40B4B7"/>
	<stop  offset="1" style="stop-color:#47B8BA"/>
</linearGradient>
<circle class="st0" cx="38.8" cy="38.9" r="8.9"/>
<linearGradient id="SVGID_2_" gradientUnits="userSpaceOnUse" x1="542.0875" y1="-211.8803" x2="596.8445" y2="-157.1332" gradientTransform="matrix(0.2539 -0.9672 -0.9672 -0.2539 -285.117 543.3763)">
	<stop  offset="0" style="stop-color:#0C4566"/>
	<stop  offset="0.28" style="stop-color:#0E8096"/>
	<stop  offset="0.61" style="stop-color:#40B4B7"/>
	<stop  offset="1" style="stop-color:#47B8BA"/>
</linearGradient>
<path class="st1" d="M46.5,0.7c-5.1-1-10.3-1-15.4,0.1C26.2,2,21.5,3.9,17.3,6.7c-4.2,2.8-7.8,6.4-10.6,10.5
	c-5.9,8.6-8,19.3-5.8,29.5c1.1,4.9,3.1,9.6,5.9,13.8c2.8,4.2,6.4,7.8,10.5,10.6c4.3,3,9.1,5,14.2,6c6.4,1.3,13.1,0.9,19.2-1.2
	c6.2-2.2,11.9-5.8,16.4-10.5l-8.8-7.7c-0.7,0.7-1.4,1.4-2.2,2c-0.7,0.6-1.5,1.2-2.3,1.7c-2.9,1.9-6.1,3.3-9.5,4.1
	c-3.5,0.8-7.2,0.8-10.7,0.1c-3.6-0.7-6.9-2.1-9.9-4.2c-2.9-2-5.4-4.5-7.4-7.4c-2-2.9-3.4-6.2-4.1-9.6c-0.8-3.5-0.8-7.2-0.1-10.8
	c0.7-3.5,2.1-6.9,4.1-9.8c4-5.9,10.2-10,17.1-11.5c3.5-0.8,7.2-0.8,10.8-0.1c1.7,0.4,3.5,0.9,5.1,1.6c1.7,0.6,3.2,1.5,4.6,2.5
	l1.8,1.3l8.2-8.3c-2.4-2.3-5.1-4.2-8.1-5.5C52.9,2.4,49.7,1.4,46.5,0.7z"/>
</svg>
